<svg xmlns="http://www.w3.org/2000/svg" xmlns:xlink="http://www.w3.org/1999/xlink" version="1.1" x="0px" y="0px" viewBox="0 0 68 85" style="enable-background:new 0 0 68 68;" xml:space="preserve"><style type="text/css">
	.st0{fill:#010101;}
</style><g><g><path class="st0" d="M60.4,56.5c1.6-1.1,2.6-2.8,2.6-4.9c0-2.9-2.1-5.3-4.9-5.8v-4.5c0-0.6-0.4-1-1-1H35.1v-2l0.1,0    c2,0,3.6-1.3,3.6-2.9l0-2.1l2.2,0c0.9,0,1.6-0.7,1.6-1.6l0-3.8c0-0.9-0.7-1.6-1.6-1.6l-1.5,0c0.3-2.2,1.3-4.3,3-6    c2.1-2.2,3.2-5,3.2-8C45.5,5.9,40,0.6,33.3,1C27.6,1.3,23,5.8,22.5,11.4c-0.3,3.4,0.9,6.7,3.3,9.1c1.7,1.7,2.7,3.7,3,5.9l-1.6,0    c-0.9,0-1.6,0.7-1.6,1.6l0,3.8c0,0.9,0.7,1.6,1.6,1.6c0,0,0,0,0,0l2.2,0l0,2.1c0,1.6,1.6,2.8,3.6,2.9v2H10.9c-0.6,0-1,0.4-1,1v4.5    c-2.7,0.5-4.7,2.9-4.7,5.7c0,2,1,3.8,2.6,4.8C4,56.6,1,59.7,1,63.5V66c0,0.6,0.4,1,1,1h17.9c0.6,0,1-0.4,1-1v-2.5    c0-3.7-2.9-6.8-6.6-7c1.6-1.1,2.6-2.8,2.6-4.9c0-2.9-2.2-5.4-5-5.8v-3.4h21.2v3.5c-2.8,0.5-4.9,2.9-4.9,5.8c0,2,1,3.8,2.6,4.8    c-3.7,0.2-6.7,3.3-6.7,7V66c0,0.6,0.4,1,1,1h17.9c0.6,0,1-0.4,1-1v-2.5c0-3.7-2.9-6.8-6.6-7c1.6-1.1,2.6-2.8,2.6-4.9    c0-2.9-2.1-5.3-4.9-5.8v-3.5h21.1v3.5c-2.8,0.5-4.9,2.9-4.9,5.8c0,2,1,3.8,2.6,4.8c-3.7,0.2-6.7,3.3-6.7,7V66c0,0.6,0.4,1,1,1H66    c0.6,0,1-0.4,1-1v-2.5C67,59.7,64.1,56.7,60.4,56.5z M18.9,63.5V65H3v-1.5c0-2.8,2.3-5,5-5h5.8C16.6,58.4,18.9,60.7,18.9,63.5z     M14.9,51.6c0,2.1-1.7,3.9-3.9,3.9s-3.9-1.7-3.9-3.9c0-2.1,1.7-3.9,3.9-3.9S14.9,49.5,14.9,51.6z M27.2,19.1c-2-2-3-4.7-2.7-7.5    c0.4-4.6,4.3-8.3,9-8.6c5.5-0.3,10.1,4,10.1,9.4c0,2.5-0.9,4.8-2.7,6.6c-2,2.1-3.2,4.7-3.6,7.4l-2.3,0v-8.3c1.7-0.4,3-2,3-3.8    c0-2.2-1.8-4-4-4c-2.2,0-4,1.8-4,4c0,1.8,1.3,3.4,2.9,3.8v8.3l-2.3,0C30.5,23.8,29.2,21.2,27.2,19.1z M34.1,16.3c-1.1,0-2-0.9-2-2    s0.9-2,2-2c1.1,0,2,0.9,2,2S35.2,16.3,34.1,16.3z M27.7,31.5l0-3c1.7,0,0.5,0,12.8-0.1l0,3C40.3,31.4,27.7,31.5,27.7,31.5z     M41.9,63.5V65H26.1v-1.5c0-2.8,2.3-5,5-5h5.8C39.7,58.4,41.9,60.7,41.9,63.5z M37.9,51.6c0,2.1-1.7,3.9-3.9,3.9    c-2.1,0-3.9-1.7-3.9-3.9c0-2.1,1.7-3.8,3.8-3.9c0,0,0,0,0,0c0,0,0,0,0,0C36.2,47.8,37.9,49.5,37.9,51.6z M33.1,36.4L33.1,36.4    c-0.9,0-1.6-0.5-1.6-0.9l0-2.1l5.2,0l0,2.1c0,0.4-0.7,0.9-1.6,0.9L33.1,36.4z M53.3,51.6c0-2.1,1.7-3.9,3.9-3.9    c2.1,0,3.9,1.7,3.9,3.9c0,2.1-1.7,3.9-3.9,3.9C55,55.5,53.3,53.7,53.3,51.6z M65,65H49.1v-1.5c0-2.8,2.3-5,5-5H60c2.8,0,5,2.3,5,5    V65z"/></g><g><path class="st0" d="M31.5,9.7c0.4-0.4,0.3-1-0.1-1.4l-1.9-1.7c-0.4-0.4-1-0.3-1.4,0.1c-0.4,0.4-0.3,1,0.1,1.4l1.9,1.7    C30.5,10.1,31.2,10.1,31.5,9.7z"/></g><g><path class="st0" d="M34,9L34,9c0.6,0,1-0.4,1-1l0-2.3c0-0.6-0.4-1-1-1h0c-0.6,0-1,0.4-1,1L33,8C33,8.6,33.4,9,34,9z"/></g><g><path class="st0" d="M37.9,9.8l1.9-1.7c0.4-0.4,0.4-1,0.1-1.4c-0.4-0.4-1-0.4-1.4-0.1l-1.9,1.7c-0.4,0.4-0.4,1-0.1,1.4    C36.8,10.1,37.5,10.1,37.9,9.8z"/></g></g></svg>