<svg xmlns="http://www.w3.org/2000/svg" data-name="Layer 1" viewBox="0 0 100 125" x="0px" y="0px"><path d="M2.11,78.63a7.59,7.59,0,0,1-.69-6.32A146,146,0,0,0,6.93,50.42a7.62,7.62,0,0,1,9.91-5.93l2.61.84a9.47,9.47,0,0,1,0-4.62A9.67,9.67,0,0,1,38.5,43,9.51,9.51,0,0,1,36,49.51c3,.57,5.86,1,8.65,1.39A2.49,2.49,0,1,1,44,55.84c-3.61-.46-7.38-1.1-11.22-1.89a2.49,2.49,0,0,1-.91-.39,4.08,4.08,0,0,1-1.63-4.33l.08-.33a4.11,4.11,0,0,1,1.43-2.2A4.57,4.57,0,0,0,33.53,43a4.69,4.69,0,0,0-9.25-1.08,4.6,4.6,0,0,0,.24,2.92,4.12,4.12,0,0,1,.22,2.62l-.08.33a4.08,4.08,0,0,1-3.49,3,2.49,2.49,0,0,1-1-.09c-1.67-.5-3.32-1-4.91-1.55a2.64,2.64,0,0,0-2.2.24,2.58,2.58,0,0,0-1.24,1.8,151,151,0,0,1-5.7,22.63,2.64,2.64,0,0,0,2,3.43,150.79,150.79,0,0,1,28.48,7.8,2.49,2.49,0,1,1-1.78,4.65A145.81,145.81,0,0,0,7.35,82.22,7.59,7.59,0,0,1,2.11,78.63Z"/><path d="M59.27,19.46A9.67,9.67,0,0,1,57,38.5h0A9.51,9.51,0,0,1,50.49,36c-.57,3-1,5.86-1.39,8.65a2.49,2.49,0,0,1-2.46,2.17l-.32,0A2.49,2.49,0,0,1,44.16,44c.46-3.61,1.1-7.38,1.89-11.22a2.49,2.49,0,0,1,.39-.91,4.08,4.08,0,0,1,4.33-1.63l.33.08a4.11,4.11,0,0,1,2.2,1.43A4.57,4.57,0,0,0,57,33.53h0a4.69,4.69,0,0,0,1.08-9.25,4.6,4.6,0,0,0-2.92.24,4.12,4.12,0,0,1-2.62.22l-.33-.08a4.08,4.08,0,0,1-3-3.49,2.48,2.48,0,0,1,.09-1c.5-1.67,1-3.32,1.55-4.91a2.64,2.64,0,0,0-.24-2.2,2.58,2.58,0,0,0-1.8-1.24,151,151,0,0,1-22.63-5.7,2.64,2.64,0,0,0-3.43,2,150.77,150.77,0,0,1-7.8,28.48,2.49,2.49,0,0,1-4.65-1.78A145.8,145.8,0,0,0,17.78,7.35a7.61,7.61,0,0,1,9.92-5.93A146,146,0,0,0,49.58,6.93a7.62,7.62,0,0,1,5.93,9.91c-.28.85-.57,1.73-.84,2.61A9.46,9.46,0,0,1,59.27,19.46Z"/><path d="M65.11,10.23a145.81,145.81,0,0,0,27.54,7.54,7.61,7.61,0,0,1,5.93,9.92,146,146,0,0,0-5.51,21.88,7.62,7.62,0,0,1-9.91,5.93l-2.61-.84a9.47,9.47,0,0,1,0,4.62,9.66,9.66,0,0,1-9.36,7.3A9.84,9.84,0,0,1,67,65.64,9.6,9.6,0,0,1,61.5,57,9.51,9.51,0,0,1,64,50.49c-3-.57-5.86-1-8.65-1.39A2.49,2.49,0,1,1,56,44.16c3.61.46,7.38,1.1,11.22,1.89a2.49,2.49,0,0,1,.91.39,4.08,4.08,0,0,1,1.63,4.33l-.08.33a4.11,4.11,0,0,1-1.43,2.2A4.57,4.57,0,0,0,66.47,57a4.69,4.69,0,0,0,9.25,1.08,4.6,4.6,0,0,0-.24-2.92,4.12,4.12,0,0,1-.22-2.62l.08-.33a4.08,4.08,0,0,1,3.49-3,2.48,2.48,0,0,1,1,.09c1.67.5,3.32,1,4.91,1.55a2.64,2.64,0,0,0,2.2-.24,2.58,2.58,0,0,0,1.24-1.8,151,151,0,0,1,5.7-22.63,2.64,2.64,0,0,0-2-3.43,150.79,150.79,0,0,1-28.48-7.8,2.49,2.49,0,0,1,1.78-4.65Z"/><path d="M51.26,88.17a151,151,0,0,1,22.63,5.7,2.64,2.64,0,0,0,3.43-2,150.77,150.77,0,0,1,7.8-28.48,2.49,2.49,0,1,1,4.65,1.78,145.8,145.8,0,0,0-7.54,27.54,7.61,7.61,0,0,1-9.92,5.93,146,146,0,0,0-21.88-5.51,7.62,7.62,0,0,1-5.93-9.91c.28-.85.57-1.73.84-2.61a9.47,9.47,0,0,1-4.62,0A9.67,9.67,0,0,1,43,61.5h0A9.51,9.51,0,0,1,49.51,64c.57-3,1-5.86,1.39-8.65a2.49,2.49,0,0,1,4.93.63c-.46,3.61-1.1,7.38-1.89,11.22a2.49,2.49,0,0,1-.39.91,4.08,4.08,0,0,1-4.33,1.63l-.33-.08a4.11,4.11,0,0,1-2.2-1.43A4.57,4.57,0,0,0,43,66.47h0a4.69,4.69,0,0,0-1.08,9.25,4.6,4.6,0,0,0,2.92-.24,4.12,4.12,0,0,1,2.62-.22l.33.08a4.08,4.08,0,0,1,3,3.49,2.48,2.48,0,0,1-.09,1c-.5,1.67-1,3.32-1.55,4.91a2.64,2.64,0,0,0,.24,2.2A2.58,2.58,0,0,0,51.26,88.17Z"/></svg>